<svg class="iconLeft" viewBox="0 0 105.156 90" xmlns="http://www.w3.org/2000/svg" data-v-423bf9ae="" style="max-height: 500px" width="105.156" height="90"><g transform="matrix(5.830903811703725,0,0,5.830903811703725,117.39726110511268,12.551021672677557)" fill="black" id="5138f406-743f-4c63-b5b9-bdc9ba58f2e3" data-v-423bf9ae=""><path d="M1.12 10.50L2.45 10.50L2.45 6.44L3.75 6.44C5.31 6.44 6.02 7.42 6.79 8.81L7.74 10.50L9.34 10.50L7.98 8.16C7.48 7.29 6.83 6.38 5.81 6.09C7.50 5.80 8.36 4.91 8.36 3.37C8.36 1.13 6.51 0.42 4.48 0.42L1.12 0.42ZM2.45 1.61L4.59 1.61C5.92 1.61 6.99 2.04 6.99 3.42C6.99 4.63 6.20 5.25 4.62 5.25L2.45 5.25ZM16.31 7.18C16.32 7.08 16.32 6.76 16.32 6.72C16.32 4.61 15.22 3.01 13.02 3.01C11.00 3.01 9.69 4.45 9.69 6.86C9.69 9.27 11.00 10.71 13.02 10.71C14.60 10.71 15.81 9.91 16.23 8.29L15.04 8.04C14.78 9.13 13.94 9.66 13.09 9.66C12.04 9.66 11.06 8.93 10.95 7.18ZM13.02 4.06C14.20 4.06 14.92 4.94 14.98 6.17L10.99 6.17C11.21 4.69 12.15 4.06 13.02 4.06ZM20.86 10.50L23.60 3.22L22.34 3.22L20.27 9.04L18.24 3.22L16.95 3.22L19.71 10.50ZM30.86 7.18C30.87 7.08 30.87 6.76 30.87 6.72C30.87 4.61 29.76 3.01 27.57 3.01C25.55 3.01 24.23 4.45 24.23 6.86C24.23 9.27 25.55 10.71 27.57 10.71C29.15 10.71 30.35 9.91 30.77 8.29L29.58 8.04C29.33 9.13 28.49 9.66 27.64 9.66C26.59 9.66 25.61 8.93 25.49 7.18ZM27.57 4.06C28.74 4.06 29.47 4.94 29.53 6.17L25.54 6.17C25.76 4.69 26.70 4.06 27.57 4.06ZM33.53 10.50L33.53 6.57C33.53 5.15 34.13 4.20 35.34 4.20C35.77 4.20 36.02 4.31 36.30 4.51L36.68 3.40C36.34 3.14 35.95 3.01 35.39 3.01C34.48 3.01 33.87 3.50 33.40 4.48L33.40 3.22L32.27 3.22L32.27 10.50ZM37.66 10.50L38.92 10.50L38.92 7.35L39.51 7.35C40.07 7.35 40.52 7.60 40.89 8.26L42.08 10.50L43.55 10.50L42.21 8.08C41.78 7.36 41.23 6.92 40.70 6.79L40.70 6.73C41.24 6.59 41.64 6.13 41.97 5.29C42.18 4.76 42.22 4.38 42.88 4.38L43.23 4.38L43.23 3.22L42.98 3.22C42.17 3.22 41.76 3.26 41.37 3.95C41.24 4.17 40.84 5.24 40.60 5.63C40.25 6.20 39.79 6.30 39.37 6.30L38.92 6.30L38.92 0.42L37.66 0.42ZM49.25 9.60C49.29 9.95 49.34 10.30 49.55 10.50L50.82 10.50C50.57 10.23 50.43 9.76 50.43 9.02L50.43 5.82C50.43 3.99 49.56 3.01 47.61 3.01C46.21 3.01 44.91 3.53 44.55 5.21L45.74 5.47C45.99 4.52 46.58 4.02 47.49 4.02C48.45 4.02 49.17 4.44 49.17 5.57L49.17 5.85C48.80 6.02 47.95 6.16 47.18 6.23C45.56 6.38 44.32 7.01 44.32 8.58C44.32 10.07 45.46 10.71 46.80 10.71C47.67 10.71 48.52 10.42 49.25 9.60ZM49.17 8.54C48.79 9.03 47.94 9.70 47.00 9.70C46.33 9.70 45.64 9.45 45.64 8.53C45.64 7.53 46.55 7.36 47.32 7.24C48.03 7.13 48.85 6.97 49.17 6.82Z"/></g><g fill="black" stroke="none" transform="matrix(2.623447812058829,0,0,2.623447812058829,-71.78571226100333,-76.45013369127307)" id="5521724a-8ef7-400a-92d5-3bba719eb91e" data-v-423bf9ae=""><path d="M57.32 29.228H37.513l-9.904 17.153 9.904 17.153H57.32l9.904-17.153-9.904-17.153zm-9.903 25.407a8.254 8.254 0 118.254-8.254 8.254 8.254 0 01-8.254 8.254z"/></g></svg>